<svg version="1.1" viewBox="0 0 355.5 355.5" xml:space="preserve" xmlns="http://www.w3.org/2000/svg"><defs><linearGradient><stop offset="0" stop-color="#000" stop-opacity="1"/></linearGradient><marker refX="0" refY="0" orient="auto" overflow="visible"><path transform="matrix(.8 0 0 .8 10 0)" d="m0 0 5-5-17.5 5L5 5 0 0z" fill-rule="evenodd" stroke="#000" stroke-width="1pt" stroke-opacity="1" fill="#53ffff" fill-opacity="1"/></marker></defs><path d="m85.2 259.3.7-107L179.5 96l94.8 55.6.3 110-94 53.2-95.4-55.5z" transform="matrix(1.21509 0 0 1.21509 -41.4 -32.8)" display="inline" fill="#fff" fill-opacity="1" stroke="#454545" stroke-width="0" stroke-linecap="butt" stroke-linejoin="miter" stroke-dasharray="none" stroke-opacity="0"/><path d="m86 151.7 94 54.3 94.3-54.4M180 206v108.9m0 0 94.8-55-.5-108.3L180.1 96l-94 55.7v108.2l94 55z" transform="matrix(1.21509 0 0 1.21509 -41.4 -32.8)" display="inline" fill="none" stroke="#9a9a9a" stroke-width="5.5" stroke-linecap="butt" stroke-linejoin="round" stroke-miterlimit="4" stroke-dasharray="none" stroke-opacity="1"/><path d="M153.7 287.3v-79.5l-4-2.2-44.2-26-7 12.2 7 4-3.3 7.5-8.9.6-4.2 12.7 8.4 4.9v1.3l-9.7 5.6v11.7l6.5 4-4.8 5.7 3.7 8.4 6.5 3.7-1.3 2 44.5 25.9 6.7 3.8z" transform="matrix(1.21509 0 0 1.21509 -41.4 -32.8)" display="inline" fill="#00bd7e" fill-opacity="1" stroke="#000" stroke-width="0" stroke-linecap="butt" stroke-linejoin="miter" stroke-dasharray="none" stroke-opacity="0"/><path d="m146.5 228.8-44.3-25.4m39.6 45-44.3-25.6m45.4 42.9-5.7-3.2m-44-58.6 9-.5m0 0 3.2-7.5m-7.9 26.9v-1.3m-8 28.1 4.9-5.6m4 20 1.3-2m34-19.8-44.5-25.6m0 0 4-12.7m0 0 44.1 25.8m12.7 47.9-4.2-2.4m-40.3-95.6 44.2 26m.1 16.1-7-4m0 0 7-12.1m0 0 3.9 2.2m0 0v79.5m0 0-4 6.4m0 0-6.8-3.9m0 0L98.4 264m44.5 25.8 7.1-12.2m0 0-3.4-3.1m0 0-9 9m0 0-3.5-8.2m0 0 8.9-9.6m0 0-1.1-6m0 0-10 6m0 0V254m0 0 10-5.7m0 0 1-7.2m0 0-9.1 1m0 0 3.6-12.4m0 0 9.1-1m0 0 3.3-7m-7-4.1-44.2-25.9m0 0 6.9-12.2m32 104L93.2 258m0 0-3.8-8.4m0 0 44.6 25.6m-2.2-9.7-44-25.5m0 0v-11.7m0 0 9.7-5.6m-9.7 5.6 44 25.7" transform="matrix(1.21509 0 0 1.21509 -41.4 -32.8)" display="inline" fill="#000" fill-opacity="0" stroke="#008055" stroke-width="2.7" stroke-linecap="round" stroke-linejoin="round" stroke-dasharray="none" stroke-opacity="1"/><path d="m150 48.2 30.2-16.9L208.8 50l.3 98.7-30.3 17-29.5-17.4.6-100z" transform="matrix(1.21509 0 0 1.21509 -41.4 -32.8)" display="inline" fill="#d94032" fill-opacity="1" stroke="#555" stroke-width="0" stroke-linecap="butt" stroke-linejoin="miter" stroke-dasharray="none" stroke-opacity="0"/><path d="M179.3 65.8v100.4M150.2 48.8l29.2 17 29.6-17m-58.8 100 29.3 17.4 29.5-17.3V48.8l-29.1-17.5L150 48.8v100z" transform="matrix(1.21509 0 0 1.21509 -41.4 -32.8)" display="inline" fill="none" stroke="#8c2323" stroke-width="5.5" stroke-linecap="round" stroke-linejoin="round" stroke-miterlimit="4" stroke-dasharray="none" stroke-opacity="1"/><path d="m208.9 223.2 39.4-23 34 19.8-.5 45.2-39.8 23.2-33.9-20.4.8-44.8z" transform="matrix(1.21509 0 0 1.21509 -41.4 -32.8)" display="inline" opacity="1" fill="#262626" fill-opacity="1" fill-rule="nonzero" stroke="#4e4e4e" stroke-width="0" stroke-linecap="butt" stroke-linejoin="miter" stroke-dasharray="none" stroke-opacity="0"/><path style="mix-blend-mode:normal" d="m248 200 33.8 19.7m.1 0-.1 45.4m0 0-39.6 23.5m0 0-33.8-19.7m0 0v-45.6m0 0 39.7-23.3m-39.7 23.3 34 19.7m0-.3 39.4-23M242.3 243l-.1 45" transform="matrix(1.21509 0 0 1.21509 -41.4 -32.8)" display="inline" opacity="1" fill="none" fill-opacity="1" fill-rule="nonzero" stroke="#181818" stroke-width="5.5" stroke-linecap="round" stroke-linejoin="round" stroke-miterlimit="4" stroke-dasharray="none" stroke-opacity="1" paint-order="fill markers stroke"/></svg>